<svg id="svg" version="1.1" xmlns="http://www.w3.org/2000/svg" xmlns:xlink="http://www.w3.org/1999/xlink" width="400" height="400" viewBox="0, 0, 400,400"><g id="svgg"><path id="path0" d="M138.133 36.713 C 106.796 39.891,80.807 57.634,66.943 85.318 C 40.227 138.661,70.460 203.418,127.632 215.311 C 135.030 216.850,135.482 216.877,155.667 216.994 L 174.400 217.102 174.400 126.818 L 174.400 36.533 156.733 36.576 C 147.017 36.599,138.647 36.661,138.133 36.713 M200.267 36.641 C 200.267 36.700,204.448 43.990,209.560 52.841 C 214.671 61.692,231.004 89.993,245.855 115.733 C 260.707 141.473,273.005 162.689,273.185 162.879 C 273.496 163.209,284.028 145.112,340.275 47.600 C 343.236 42.467,345.895 37.877,346.184 37.400 L 346.710 36.533 273.488 36.533 C 233.216 36.533,200.267 36.582,200.267 36.641 M234.133 269.712 L 234.133 360.000 244.200 360.067 C 249.737 360.103,256.667 360.113,259.600 360.088 C 314.119 359.626,355.072 309.024,345.569 253.867 C 339.380 217.943,312.464 189.332,277.467 181.474 C 270.066 179.812,268.021 179.667,250.333 179.540 L 234.133 179.424 234.133 269.712 M113.275 262.733 C 104.112 278.610,87.762 306.936,76.942 325.679 C 66.122 344.423,57.324 359.813,57.391 359.880 C 57.457 359.946,90.263 359.971,130.291 359.934 L 203.070 359.867 174.738 310.800 C 159.155 283.813,142.788 255.463,138.367 247.800 C 133.945 240.137,130.239 233.867,130.131 233.867 C 130.023 233.867,122.438 246.857,113.275 262.733 " stroke="none" fill="#fbfbfb" fill-rule="evenodd"></path><path id="path1" d="M0.000 200.000 L 0.000 400.000 200.000 400.000 L 400.000 400.000 400.000 200.000 L 400.000 0.000 200.000 0.000 L 0.000 0.000 0.000 200.000 M174.400 126.800 L 174.400 217.333 157.667 217.330 C 139.405 217.326,136.194 217.138,128.383 215.614 C 81.732 206.507,50.320 160.155,58.164 112.000 C 64.495 73.132,94.907 42.605,132.667 37.213 C 138.294 36.410,140.245 36.337,157.267 36.302 L 174.400 36.267 174.400 126.800 M346.701 36.733 C 346.562 36.990,343.848 41.700,340.670 47.200 C 337.492 52.700,321.086 81.108,304.212 110.328 C 287.338 139.549,273.440 163.399,273.328 163.330 C 273.080 163.177,276.232 168.616,234.436 96.207 C 215.496 63.395,200.000 36.485,200.000 36.407 C 200.000 36.330,233.064 36.267,273.476 36.267 C 343.371 36.267,346.940 36.289,346.701 36.733 M262.933 179.460 C 294.994 181.137,322.824 199.471,337.295 228.448 C 364.701 283.327,332.156 349.157,272.667 359.174 C 266.960 360.134,263.157 360.296,248.267 360.213 L 234.000 360.133 233.932 270.000 C 233.894 220.427,233.920 179.717,233.990 179.533 C 234.145 179.126,255.510 179.072,262.933 179.460 M133.675 239.400 C 135.509 242.590,151.902 270.990,170.105 302.511 C 188.307 334.033,203.159 359.863,203.110 359.912 C 203.061 359.961,170.179 359.971,130.038 359.934 L 57.054 359.867 76.681 325.867 C 87.475 307.167,103.873 278.757,113.121 262.733 C 122.368 246.710,130.026 233.600,130.137 233.600 C 130.249 233.600,131.841 236.210,133.675 239.400 " stroke="none" fill="#141414" fill-rule="evenodd"></path><path id="path2" d="M148.619 36.467 C 153.433 36.507,161.233 36.507,165.953 36.467 C 170.672 36.426,166.733 36.392,157.200 36.392 C 147.667 36.392,143.805 36.426,148.619 36.467 M236.888 36.467 C 257.103 36.504,290.103 36.504,310.222 36.467 C 330.340 36.429,313.800 36.398,273.467 36.398 C 233.133 36.398,216.673 36.429,236.888 36.467 M57.129 122.400 C 57.129 122.913,57.183 123.123,57.250 122.867 C 57.318 122.610,57.318 122.190,57.250 121.933 C 57.183 121.677,57.129 121.887,57.129 122.400 M264.067 179.650 C 264.323 179.718,264.743 179.718,265.000 179.650 C 265.257 179.583,265.047 179.529,264.533 179.529 C 264.020 179.529,263.810 179.583,264.067 179.650 M148.619 217.267 C 153.433 217.307,161.233 217.307,165.953 217.267 C 170.672 217.226,166.733 217.192,157.200 217.192 C 147.667 217.192,143.805 217.226,148.619 217.267 M239.151 360.200 C 241.984 360.243,246.544 360.243,249.284 360.200 C 252.025 360.156,249.707 360.121,244.133 360.121 C 238.560 360.121,236.318 360.156,239.151 360.200 " stroke="none" fill="#8c8c8c" fill-rule="evenodd"></path><path id="path3" d="" stroke="none" fill="#848484" fill-rule="evenodd"></path><path id="path4" d="M233.990 179.533 C 233.920 179.717,233.894 220.427,233.932 270.000 L 234.001 360.133 234.067 269.803 L 234.133 179.472 246.333 179.400 L 258.533 179.328 246.325 179.264 C 236.756 179.214,234.089 179.272,233.990 179.533 M82.667 190.750 C 82.667 190.796,83.057 191.186,83.533 191.617 L 84.400 192.400 83.617 191.533 C 82.887 190.725,82.667 190.544,82.667 190.750 M347.028 269.733 C 347.027 271.053,347.072 271.627,347.128 271.008 C 347.184 270.389,347.185 269.309,347.130 268.608 C 347.075 267.907,347.029 268.413,347.028 269.733 " stroke="none" fill="#626262" fill-rule="evenodd"></path></g></svg>